<svg viewBox="0 0 33 32" fill="none" xmlns="http://www.w3.org/2000/svg">
<path d="M19.168 13.3333C20.2288 13.3333 21.2463 13.7547 21.9964 14.5048C22.7465 15.255 23.168 16.2724 23.168 17.3333V21.9999H20.5013V17.3333C20.5013 16.9796 20.3608 16.6405 20.1108 16.3904C19.8607 16.1404 19.5216 15.9999 19.168 15.9999C18.8143 15.9999 18.4752 16.1404 18.2252 16.3904C17.9751 16.6405 17.8346 16.9796 17.8346 17.3333V21.9999H15.168V17.3333C15.168 16.2724 15.5894 15.255 16.3395 14.5048C17.0897 13.7547 18.1071 13.3333 19.168 13.3333Z" stroke="currentColor" stroke-width="1.33333" stroke-linecap="round" stroke-linejoin="round"/>
<path d="M12.4987 14H9.83203V22H12.4987V14Z" stroke="currentColor" stroke-width="1.33333" stroke-linecap="round" stroke-linejoin="round"/>
<path d="M11.1654 11.9999C11.9017 11.9999 12.4987 11.403 12.4987 10.6666C12.4987 9.93021 11.9017 9.33325 11.1654 9.33325C10.429 9.33325 9.83203 9.93021 9.83203 10.6666C9.83203 11.403 10.429 11.9999 11.1654 11.9999Z" stroke="currentColor" stroke-width="1.33333" stroke-linecap="round" stroke-linejoin="round"/>
</svg>
